PathFileType	4	(X/Y/Z)	C:/Users/beibeiliu/ov580/test_trc\sequence.6_training_dense_left.trc
DataRate	CameraRate	NumFrames	NumMarkers	Units	OrigDataRate	OrigDataStartFrame	OrigNumFrames
120	120	14	19	mm	120	76	125
Frame#	Time	ThumbCMC			ThumbMCP			ThumbIP			ThumbTip			IndexMCP			IndexPIP			IndexTip			MiddleMCP			MiddlePIP			MiddleTip			RingMCP			RingPIP			RingTip			PinkyMCP			PinkyPIP			PinkyTip			BackHand1			BackHand2			BackHand3	
		X0	Y0	Z0	X1	Y1	Z1	X2	Y2	Z2	X3	Y3	Z3	X4	Y4	Z4	X5	Y5	Z5	X6	Y6	Z6	X7	Y7	Z7	X8	Y8	Z8	X9	Y9	Z9	X10	Y10	Z10	X11	Y11	Z11	X12	Y12	Z12	X13	Y13	Z13	X14	Y14	Z14	X15	Y15	Z15	X16	Y16	Z16	X17	Y17	Z17	X18	Y18	Z18	
75	0.625	-102.266	81.6632	65.1938	-95.1654	76.6476	34.4275	-94.0539	78.703	11.1448	-104.151	77.1325	-11.3055	-118.256	130.757	24.9366	-116.884	140.428	-3.32462	-107.782	131.207	-26.2204	-129.383	121.142	6.16602	-125.921	102.4	-16.7869	-118.276	74.1818	1.94141	-145.375	101.262	5.45575	-131.294	79.2203	-3.23757	-129.034	63.6293	23.6583	-157.727	91.3306	14.0073	-146.648	70.4002	6.26907	-133.336	67.2942	30.7349	-150.792	106.105	53.9819	-151.725	91.0915	82.5355	-129.774	103.537	73.8843	
76	0.633333	-108.093	88.6358	62.9443	-99.785	82.2391	34.305	-105.551	84.4297	10.2099	-111.3	81.2968	-13.1366	-126.18	134.347	27.0655	-128.331	147.842	0.957477	-126.963	142.652	-24.2077	-142.003	121.659	4.47529	-136.08	102.43	-16.7787	-123.291	78.0828	-0.977666	-152.03	102.135	7.47634	-139.926	76.2328	-2.12618	-133.827	65.2694	20.5191	-166.651	86.3615	12.1779	-150.701	69.2277	7.34582	-137.22	66.5676	34.7654	-161.292	100.688	58.124	-163.242	90.9544	79.664	-139.393	108.032	70.8784	
77	0.641667	-118.262	93.8141	64.7914	-109.56	89.7876	33.6155	-109.099	88.708	8.88757	-117.006	84.8287	-11.5054	-142.241	136	23.9702	-144.297	148.827	-2.07919	-140.587	143.427	-29.1076	-151.981	122.192	4.8313	-143.02	105.944	-17.1205	-131.519	79.8255	-0.782915	-161.078	98.6762	5.33687	-144.974	76.1555	-0.99954	-136.026	67.0667	23.7419	-170.206	84.9456	11.5006	-151.517	68.9717	9.26267	-141.572	70.1233	30.7382	-172.276	102.809	56.7093	-167.929	89.8375	80.8174	-149.063	110.761	70.0872	
78	0.65	-120.684	100.852	64.0017	-116.08	96.1113	30.9523	-117.303	93.1436	9.17487	-126.82	86.9604	-10.7507	-155.355	136.354	19.3312	-158.29	145.422	-4.79214	-150.484	134.009	-28.8125	-166.852	116.438	5.64441	-150.703	100.243	-18.6394	-133.677	82.2566	-2.26238	-169.847	96.2515	7.70158	-150.692	74.828	-2.61059	-138.247	67.811	18.6386	-177.039	80.4383	16.5046	-153.588	66.8173	11.1092	-143.176	68.6051	32.7461	-175.013	98.5108	57.8565	-171.497	90.2439	79.7505	-153.167	111.772	69.4787	
79	0.658333	-128.28	99.7341	61.9083	-119.758	94.3052	31.6355	-119.766	91.746	6.91402	-129.718	83.1023	-12.9679	-164.703	128.031	18.6587	-168.864	131.934	-11.8264	-156.094	121.524	-29.9591	-174.221	109.458	3.40996	-160.368	98.0637	-18.9212	-141.61	76.9883	-3.08995	-173.663	88.8308	3.54024	-155.291	70.2673	-1.87867	-139.939	65.7813	19.0833	-180.362	72.4315	15.8381	-159.724	59.8834	10.2593	-146.447	64.0089	32.0744	-181.645	91.2033	58.2254	-176.054	88.8506	80.9883	-161.323	109.791	69.2159	
80	0.666667	-135.662	94.3149	62.7952	-122.72	89.0362	34.3488	-128.991	85.485	9.70153	-134.46	75.6431	-8.96702	-175.548	121.965	16.7169	-179.343	122.247	-11.3925	-163.714	112.248	-31.4643	-181.733	99.9689	4.65907	-167.577	85.4791	-18.2218	-145.413	71.3708	-3.46183	-180.084	80.8137	9.03037	-160.562	67.4906	-1.53116	-142.84	62.1923	22.3297	-184.877	58.9998	16.0901	-163.203	55.8281	12.7352	-148.665	57.2055	34.0467	-191.111	84.6088	56.2584	-178.193	80.9071	83.2028	-166.971	102.299	71.1545	
81	0.675	-138.119	95.3004	64.8837	-129.731	87.6911	34.2922	-131.608	83.8898	10.7614	-135.953	72.4202	-7.64983	-182.391	113.953	19.691	-191.091	115.068	-5.52382	-181.266	106.178	-31.3885	-186.005	93.9097	5.91701	-170.462	81.7851	-16.544	-148.326	63.2651	-0.810435	-185.022	70.0568	11.9207	-163.897	57.9096	1.01698	-143.184	58.1588	25.2938	-183.68	54.7666	19.148	-162.524	49.9452	15.6023	-148.578	52.5279	38.7649	-193.992	74.4366	60.9799	-185.07	70.3687	84.8131	-174.146	96.048	71.8249	
82	0.683333	-146.37	95.5229	67.2153	-135.331	88.1279	40.9149	-136.226	82.3611	13.4356	-140.803	71.0426	-4.4069	-191.883	107.907	21.7638	-199.114	109.241	-2.86033	-194.461	101.389	-27.7919	-191.911	83.7973	11.6546	-171.569	72.6893	-12.91	-147.125	61.8454	3.42059	-185.722	62.1002	13.5472	-162.089	52.5828	5.22889	-142.747	58.1824	26.0628	-185.382	45.9761	26.5937	-160.548	43.3016	19.0855	-148.039	51.2669	39.358	-195.853	69.7031	61.5071	-186.426	67.3759	88.8701	-181.769	89.9289	77.0997	
83	0.691667	-152.405	94.702	72.8853	-138.305	92.7291	41.5049	-139.969	84.2662	18.7798	-139.759	71.1704	-1.7074	-197.778	98.4999	24.5881	-205.744	96.4778	-2.2466	-196.406	92.2185	-26.298	-195.01	71.8332	10.1538	-173.92	64.1891	-8.85222	-147.753	60.9297	5.81211	-184.323	55.0354	18.0579	-158.573	50.7568	8.6699	-140.202	55.809	31.7383	-179.245	36.954	29.7005	-155.275	38.9579	24.389	-145.898	55.8394	44.1062	-195.448	57.5401	64.9642	-186.292	57.5712	92.011	-186.795	85.391	77.575	
84	0.7	-160.979	97.091	71.5637	-145.87	95.159	42.2909	-142.064	90.3026	18.8258	-140.009	73.3678	2.23748	-203.517	86.5923	27.249	-205.632	79.7463	-3.81114	-188.705	80.4045	-21.437	-193.613	65.3919	12.5258	-173.737	58.5418	-6.10337	-145.225	65.0376	10.6982	-179.726	46.3155	20.2639	-151.692	52.4934	14.3673	-139.723	61.3751	37.522	-171.748	35.4211	30.9094	-148.257	39.9922	29.4568	-143.303	58.1224	47.4837	-195.077	48.8497	68.8148	-183.555	54.6422	97.1168	-190.805	80.2203	80.0241	
85	0.708333	-167.1	96.597	74.2572	-153.76	94.2683	44.7413	-148.015	87.579	23.8561	-141.292	73.4087	4.72831	-204.523	70.0445	24.8715	-203.377	63.8069	0.271212	-178.855	67.1552	-16.1296	-190.871	54.468	16.3014	-165.565	55.8811	-3.12199	-144.167	65.569	14.3159	-171.777	38.3389	23.0212	-147.99	52.589	17.0913	-137.656	62.025	43.3477	-159.676	28.4899	33.5857	-141.941	42.6636	33.3443	-139.96	59.5498	57.4181	-187.6	41.3849	72.9298	-183.653	50.8063	95.8411	-192.014	73.5538	83.0011	
86	0.716667	-174.815	88.9878	75.5534	-160.262	92.4142	44.9297	-152.291	89.3515	24.3552	-141.571	70.2482	4.61685	-201.012	53.9509	26.6412	-199.492	49.1215	-2.95919	-173.765	56.7907	-17.0545	-182.55	39.3024	19.755	-161.67	47.0073	-0.169115	-140.501	65.4322	22.7631	-163.579	34.6164	26.1031	-139.798	51.0746	23.4859	-136.64	63.1193	44.3279	-152.814	27.5861	38.6224	-137.989	47.5718	38.0686	-139.372	58.8314	59.4695	-180.038	33.3891	75.76	-182.027	43.1908	97.129	-195.526	62.4324	82.0102	
87	0.725	-183.028	80.1763	73.8008	-169.058	86.8914	43.3454	-159.386	78.9428	24.4201	-144.821	72.3111	5.00869	-197.282	34.698	24.6158	-191.978	28.3661	-0.594474	-172.639	40.1016	-19.9037	-174.944	29.7037	16.9399	-154.619	43.665	0.471864	-142.667	64.1488	20.4666	-152.294	26.356	28.9064	-138.285	50.0346	23.6898	-140.503	65.5989	47.881	-142.295	25.2714	42.2709	-131.042	48.8211	42.543	-141.313	58.7316	61.5951	-173.171	22.3029	76.6615	-174.721	34.4453	102.598	-194.116	46.6158	81.969	
88	0.733333	-189.565	68.1211	70.842	-177.25	77.0158	44.1864	-166.497	75.2205	18.8023	-146.88	66.5948	6.52786	-186.487	22.1243	27.413	-179.513	16.1868	-2.98088	-163.898	27.1758	-18.3003	-159.742	20.9341	18.2362	-144.62	42.1242	4.34661	-144.19	65.5402	21.1344	-141.592	25.8899	33.5675	-135.367	51.0907	25.3493	-141.703	67.0347	47.3101	-132.241	28.5804	44.6739	-129.955	52.0791	42.4774	-141.788	61.9617	62.3174	-164.611	19.1621	78.983	-168.223	27.8502	102.416	-189.774	34.1316	77.7542	
